# xmcd
#
# Track frame offsets:
#	150
#	29085
#	50795
#	66283
#	80276
#	105068
#	121744
#	153581
#	181248
#	197413
#	215897
#	246002
#	264611
#	289121
#
# Disc length: 4101 seconds
#
# Revision: 1
# Processed by: cddbd v1.5.2PL0 Copyright (c) Steve Scherf et al.
# Submitted via: audiograbber 1.83.01
#
DISCID=c710030e
DTITLE=Various Artist - Blues Cazorla "Una mirada al blues hecho aquí"
DYEAR=2004
DGENRE=Blues
TTITLE0=Caledonia Blues Band - Why I Sing The Blues
TTITLE1=Alias Blues Gang - You Can't Judge A Book By Its Cover
TTITLE2=Oh Well and Det Ferring - Fire
TTITLE3=Sin Elefante - Claudia
TTITLE4=La Blues Band De Granada - The Rocker Man
TTITLE5=Willy James Band - Kitchen Light
TTITLE6=Fede Aguado and Antonio Serrano - No Hablaré De Amor
TTITLE7=Danny Boy and The Jumpers - Earling The Morning
TTITLE8=Tonky De La Peña - Big Legs
TTITLE9=Edu Manazas and Whiskey Tren - You Belong To Me
TTITLE10=Blues Devils - Keep On Lovin' Me Baby
TTITLE11=3 Hombres - Over And Over
TTITLE12=Andabluses - Born Under A Bad Sign
TTITLE13=Los Reyes Del KO - Turkey On The Barn
EXTD=
EXTT0=
EXTT1=
EXTT2=
EXTT3=
EXTT4=
EXTT5=
EXTT6=
EXTT7=
EXTT8=
EXTT9=
EXTT10=
EXTT11=
EXTT12=
EXTT13=
PLAYORDER=
